<svg id="eMZdRS1n0eP1" xmlns="http://www.w3.org/2000/svg" xmlns:xlink="http://www.w3.org/1999/xlink" viewBox="0 0 300 300" shape-rendering="geometricPrecision" text-rendering="geometricPrecision"><defs><radialGradient id="eMZdRS1n0eP11-fill" cx="0" cy="0" r="0.5" spreadMethod="pad" gradientUnits="objectBoundingBox" gradientTransform="translate(0.5 0.5)"><stop id="eMZdRS1n0eP11-fill-0" offset="0%" stop-color="#000"/><stop id="eMZdRS1n0eP11-fill-1" offset="52%" stop-color="#4a4a4a"/><stop id="eMZdRS1n0eP11-fill-2" offset="100%" stop-color="#000"/></radialGradient><radialGradient id="eMZdRS1n0eP11-stroke" cx="0" cy="0" r="0.5" spreadMethod="pad" gradientUnits="objectBoundingBox" gradientTransform="translate(0.5 0.5)"><stop id="eMZdRS1n0eP11-stroke-0" offset="0%" stop-color="#0c0c0c"/><stop id="eMZdRS1n0eP11-stroke-1" offset="100%" stop-color="#151515"/></radialGradient><radialGradient id="eMZdRS1n0eP14-fill" cx="0" cy="0" r="0.5" spreadMethod="pad" gradientUnits="objectBoundingBox" gradientTransform="translate(0.5 0.5)"><stop id="eMZdRS1n0eP14-fill-0" offset="0%" stop-color="#000"/><stop id="eMZdRS1n0eP14-fill-1" offset="52%" stop-color="#4a4a4a"/><stop id="eMZdRS1n0eP14-fill-2" offset="100%" stop-color="#000"/></radialGradient><radialGradient id="eMZdRS1n0eP14-stroke" cx="0" cy="0" r="0.5" spreadMethod="pad" gradientUnits="objectBoundingBox" gradientTransform="translate(0.5 0.5)"><stop id="eMZdRS1n0eP14-stroke-0" offset="0%" stop-color="#0c0c0c"/><stop id="eMZdRS1n0eP14-stroke-1" offset="100%" stop-color="#151515"/></radialGradient><radialGradient id="eMZdRS1n0eP16-fill" cx="0" cy="0" r="0.5" spreadMethod="pad" gradientUnits="objectBoundingBox" gradientTransform="translate(0.5 0.5)"><stop id="eMZdRS1n0eP16-fill-0" offset="71%" stop-color="#000"/><stop id="eMZdRS1n0eP16-fill-1" offset="100%" stop-color="#2e2e22"/></radialGradient></defs><g transform="matrix(1.617157 0 0 1.638595-92.573548-95.45987)"><ellipse rx="140" ry="140" transform="matrix(.628021 0 0 0.63028 150 149.484207)" fill="#fff" stroke="#000" stroke-width="2"/><ellipse rx="76.002627" ry="39.48574" transform="matrix(.93152 0 0 1 150 149.749729)" fill="#333" stroke-width="0"/><ellipse rx="76.002627" ry="39.48574" transform="matrix(.888714 0 0 1 150 150)" fill="#bdc0c3" stroke-width="0"/><ellipse rx="76.002627" ry="39.48574" transform="matrix(.859078 0 0 1 150 150)" fill="#333" stroke-width="0"/><ellipse rx="62.939676" ry="49.282953" transform="matrix(.892087 0 0 1 150 159.797213)" fill="#f4dddd" stroke-width="0"/><ellipse rx="48.392298" ry="36.220002" transform="translate(150 181.679268)" fill="#f4dddd" stroke-width="0"/><g transform="matrix(1.02745 0 0 1.323757-5.503147-42.093792)"><g transform="translate(5.049837-.315614)"><path d="M102.147729,145.682557l-6.135743-.117995-.235991,2.477895l3.421857.353986v4.837796l.117995,4.955791h2.359901c0,0-.318693-3.541286-.127109-4.948562s.370714-3.686722,1.507427-4.522282s3.568304-1.661198,5.415573-1.73075s5.980996-.025102,8.095443.279153s5.520523.48132,7.481307.949121s5.53211,1.376981,5.596657,1.441528s3.052126,1.028592,3.838722,2.522448.681169,2.821062.673892,3.934291-.623251,3.372999-.623251,3.372999q.117995,0,2.005916,0c0,0,.652765-2.37922.679145-3.566637s-.132735-3.088611-.614137-4.243129-.987658-2.345876-2.456549-3.405669-5.557694-2.037138-7.983782-2.56821-5.482315-.682158-7.927952-.949121-7.669937-.266978-9.714532-.167492-5.374789,1.094839-5.374789,1.094839Z" transform="matrix(1.207175 0 0 1-25.115 4.542453)" fill="url(#eMZdRS1n0eP11-fill)" stroke="url(#eMZdRS1n0eP11-stroke)" stroke-width="0.6"/><path d="M95.94167,168.18246c-.503943-1.309007-.916216-3.028624-1.07995-4.936916s-.182188-6.174931.340698-7.707502s1.944041-2.443116,4.339086-3.615905s3.116762-.91435,4.960934-1.135304s4.880845-.163441,7.29256-.098549s6.419839.344466,8.770782.591288s4.915612.597084,6.898368.985481s5.161949.967116,6.552574,1.629543s2.079521,1.210599,2.809496,2.115286s1.485888,2.661378,1.773866,3.843376.534204,1.810127-.087978,4.138002-1.194283,4.386252-2.178629,6.012454-2.746079,3.645888-4.237568,4.631761-3.647029,1.556615-5.321599,1.872414-3.852268.435097-5.714875.463475-4.665471.116104-6.780173.088197-5.594169.132233-7.313123-.25603-5.879918-2.256612-5.879918-2.322311-2.117573-1.356485-3.418752-3.222519-1.221856-1.767234-1.725799-3.076241Z" transform="translate(.000001 0.000005)" fill="#6ccaf8" stroke="#000" stroke-width="0.2"/></g><g transform="matrix(-1 0 0 1 296.26937-.315614)"><path d="M102.147729,145.682557l-6.135743-.117995-.235991,2.477895l3.421857.353986v4.837796l.117995,4.955791h2.359901c0,0-.318693-3.541286-.127109-4.948562s.370714-3.686722,1.507427-4.522282s3.568304-1.661198,5.415573-1.73075s5.980996-.025102,8.095443.279153s5.520523.48132,7.481307.949121s5.53211,1.376981,5.596657,1.441528s3.052126,1.028592,3.838722,2.522448.681169,2.821062.673892,3.934291-.623251,3.372999-.623251,3.372999q.117995,0,2.005916,0c0,0,.652765-2.37922.679145-3.566637s-.132735-3.088611-.614137-4.243129-.987658-2.345876-2.456549-3.405669-5.557694-2.037138-7.983782-2.56821-5.482315-.682158-7.927952-.949121-7.669937-.266978-9.714532-.167492-5.374789,1.094839-5.374789,1.094839Z" transform="matrix(1.207175 0 0 1-25.115 4.542453)" fill="url(#eMZdRS1n0eP14-fill)" stroke="url(#eMZdRS1n0eP14-stroke)" stroke-width="0.6"/><path d="M95.94167,168.18246c-.503943-1.309007-.916216-3.028624-1.07995-4.936916s-.182188-6.174931.340698-7.707502s1.944041-2.443116,4.339086-3.615905s3.116762-.91435,4.960934-1.135304s4.880845-.163441,7.29256-.098549s6.419839.344466,8.770782.591288s4.915612.597084,6.898368.985481s5.161949.967116,6.552574,1.629543s2.079521,1.210599,2.809496,2.115286s1.485888,2.661378,1.773866,3.843376.534204,1.810127-.087978,4.138002-1.194283,4.386252-2.178629,6.012454-2.746079,3.645888-4.237568,4.631761-3.647029,1.556615-5.321599,1.872414-3.852268.435097-5.714875.463475-4.665471.116104-6.780173.088197-5.594169.132233-7.313123-.25603-5.879918-2.256612-5.879918-2.322311-2.117573-1.356485-3.418752-3.222519-1.221856-1.767234-1.725799-3.076241Z" transform="translate(.000001 0.000005)" fill="#6ccaf8" stroke="#000" stroke-width="0.2"/></g><path d="M144.505656,160.33731c.797118.204192,1.096737-2.297174,1.68-2.7s1.526617-.91802,2.2-1.08s2.409064-.197546,3.08-.12s1.66231.484187,2.2.72.82.54,1.18,1s.66,1.06.92,1.5.500689,1.099152.997638.945591.224005-1.866707.224005-1.866707q-.72874-1.50738-1.241643-2.038884c-.512903-.531503-2.056206-1.395858-2.11843-1.395858s-1.739995-.65201-3.0614-.746684-1.405969.031515-1.98017.202542-1.438451.512737-1.96.72-.849421.451511-1.26.68-.751451.607058-.94,1.22-.717117,2.755808.08,2.96Z" transform="translate(.000005 0.000012)" fill="url(#eMZdRS1n0eP16-fill)" stroke="#000" stroke-width="0.6"/></g><path d="M169.320432,109.034632c0-.555087-.245654-7.460329,3.330524-11.934379s7.679692-5.330926,10.824205-6.105963s9.158942.277544,9.158942.277544-6.118058,1.794317-8.326312,2.775437-5.021228,2.304643-6.383506,3.608068-2.295953,3.10888-2.775438,4.440699-.555089,4.163156-.555089,4.163156s8.525859-1.240989,10.824204-1.387719s2.457651-.251753,4.440698,0s6.194404.654073,8.603854,2.22035s6.383506,8.048768,6.383506,8.048768l6.938592,9.158941l1.387719,12.211923-5.550875-4.4407.83263,13.599641-4.440701-3.052981.832632,15.819991-5.828418-11.379292-8.048768-13.877185-.555087,5.828418-4.163156-10.269118-7.49368,7.771224.832631-10.824204-8.048767-8.048768-5.828418,3.885612-9.436486,7.771224q.832629-8.048769,1.110173-8.326312t-4.4407-3.608068l-19.983147,13.322098-1.110176-7.49368.83263-6.661049-7.216137,5.273331-9.158942,11.656835q-.555088-6.938592-.555088-7.216136t-3.052982-3.885612l-2.775437,4.718243-.555087,6.383505-6.661049-1.942806q-2.497895,10.546661-2.220351,10.546661t-4.163155,9.991574l-3.885613,8.326311-4.4407-8.603855-3.052981,4.440699.555087-11.101748q4.163155-11.934379,4.440699-11.934379c.277544,0-6.105963,3.608068-5.828419,3.608068q.277544,0,9.436486-14.154729q7.216138-8.048769,7.493681-8.326312c.277543-.277543-10.546662-2.497894-10.269118-2.775437q.277544-.277543,21.64841-6.938592q14.802331-7.216137,14.98736-7.216137c.185029,0,10.374164-5.967184,17.762797-6.661049s8.588574-.546562,11.230629.173771s4.081489,2.182723,6.254625,4.822014s6.661069,13.322104,6.661069,13.322104Z" transform="matrix(1.02537 0 0 1.268676-3.771063-33.731855)" fill="#101010" stroke="#000" stroke-width="0.6"/><path d="M104.616678,152.369889q.389749,0,4.871857-4.871858q9.54884.194875,9.743714.194875c.194874,0,7.79497,1.753869,8.379593,2.143617q.584623.389748,9.54884,3.702611l2.533366,2.338492-9.743715-3.312864-8.18472-2.338493-3.507737-.584623-7.210348-.389749q-6.820601,3.117989-6.43085,3.117992Z" transform="translate(.000002 0.000003)" stroke="#050505" stroke-width="0.6"/><path d="M104.616678,152.369889q.389749,0,4.871857-4.871858q9.54884.194875,9.743714.194875c.194874,0,7.79497,1.753869,8.379593,2.143617q.584623.389748,9.54884,3.702611l2.533366,2.338492-9.743715-3.312864-8.18472-2.338493-3.507737-.584623-7.210348-.389749q-6.820601,3.117989-6.43085,3.117992Z" transform="matrix(-1 0 0 1 298.94331-1.210212)" stroke="#000" stroke-width="0.6"/><path d="M102.864547,189.163444c0-.082256.793661,3.789244,2.545102,6.948675s2.958714,4.064101,4.565193,5.799031s3.450171,3.728148,6.169182,5.675648s8.691425,5.27119,12.21498,6.662716s8.1093,2.234835,11.247742,2.790506s6.429486.983332,9.604092,1.034387s10.283678-.818924,11.474679-.863687s7.309129-1.396569,11.474677-3.084592s4.60795-2.265687,6.635443-3.427748s5.278272-3.074102,7.001601-4.376s3.167089-2.463205,4.5401-4.047801s3.250161-4.906153,4.199821-6.518689s1.62346-2.72806,2.243657-4.347087s1.682744-6.450517,1.682744-6.450517-2.72788,4.546556-4.516022,6.321593-5.432826,3.94037-7.4392,5.3059-4.764493,1.639494-6.509301,2.6256-5.720362,1.983121-7.745177,2.848452-6.056295-1.301127-7.241598.420377.80567,6.719199-.711253,8.625521-8.215887,3.289614-8.215887,3.289614c0-.093485-3.809189.780833-7.323723.203437s-8.049019-1.351055-9.941749-3.574202.111373-5.773346-.942116-7.207945-1.316282-1.231153-2.746396-1.322339-3.8411,1.701192-6.001383,1.017184-5.689349-1.81869-8.035751-2.644678-7.74072-4.660727-8.544343-4.780763-4.916145-3.493173-7.197911-5.097923-2.487203-1.701286-2.487203-1.82467Z" transform="translate(.000003 0.000005)" fill="rgba(11,10,10,0.27)" stroke-width="0.6"/><path d="M136.614936,199.587874c-.085026-.940041.942096-2.437792,1.588433-3.375421s1.582607-2.282111,2.680481-2.779759s2.665119-.902353,3.858768-.88373s3.19001.907136,4.0834.983007s1.447397.301062,2.184096.198554s1.859152-.807362,2.581204-.992771s1.511334-.266836,2.184096-.297831s1.588337.177247,2.416666.325203s2.202377.464866,2.89255.897687s1.53988,1.501156,1.640181,1.755423.776916,1.734163,1.119378,2.733017.26514.853966.369778,1.337344.574215,1.598844.394919,1.821187-2.161172-.547424-3.158532-1.629137-.820355-1.412258-.964183-1.59589-1.209805-1.102088-2.328109-1.375922-1.608148.013825-2.382651-.000001-2.0797-.086781-2.779758-.099278-1.356697-.025906-1.985076.04555-1.460934.418741-2.184562.450833-1.760991-.165932-2.581205-.297832-2.232775-.6485-2.879036-.595663-.818513.209145-1.232333.509158-.795905.932436-1.263412,1.396403-1.274128.988005-1.695633,1.529394-.344033,1.976517-1.070308,2.025282-1.404125-1.144766-1.489152-2.084807Z" transform="translate(.000004 0.000012)" fill="rgba(0,0,0,0.32)" stroke-width="0.6"/><path d="M103.27547,169.89262c1.91317-1.91317,4.64603-2.92685,6.8545-4.39915" fill="none" stroke="#3f5787" stroke-width="0.6"/><path d="M110.23227,174.701c3.66727-3.05606,8.7345-4.06165,12.48133-7.05911" fill="none" stroke="#3f5787" stroke-width="0.6"/><path d="M120.25825,179.71399c1.07665-1.34581,2.70429-1.78354,3.88763-2.96687" fill="none" stroke="#3f5787" stroke-width="0.6"/><path d="M165.79879,173.52898c1.97016-3.2836,4.90602-4.382,7.80532-6.55647" fill="none" stroke="#3f5787" stroke-width="0.6"/><path d="M172.66747,182.58316c5.35202-7.13603,13.65327-10.9194,19.04499-18.10835" fill="none" stroke="#3f5787" stroke-width="0.6"/><path d="M181.40944,182.27094c2.02384-1.2143,3.29183-3.29183,4.99541-4.99541" fill="none" stroke="#3f5787" stroke-width="0.6"/></g></svg>
